<svg width="54" height="54" fill="none" xmlns="http://www.w3.org/2000/svg"><circle cx="27" cy="27" r="27" fill="#21A038"/><path d="M34.761 18H17.24C15.453 18 14 19.545 14 21.443v10.114C14 33.455 15.453 35 17.239 35H34.76c1.787 0 3.24-1.545 3.24-3.443V21.443C38 19.545 36.547 18 34.761 18zM17.24 20.096h17.52c.7 0 1.268.604 1.268 1.347v.815H15.97v-.815c0-.743.569-1.347 1.268-1.347zm17.52 12.808H17.24c-.7 0-1.268-.604-1.268-1.347v-7.203H36.03v7.203c0 .743-.569 1.347-1.268 1.347z" fill="#fff"/><path d="M19.992 27.516H18.49a.986.986 0 000 1.972h1.502a.986.986 0 000-1.972z" fill="#fff"/></svg>