<svg width="54" height="54" viewBox="0 0 54 54" fill="none" xmlns="http://www.w3.org/2000/svg">
<circle cx="27" cy="27" r="27" fill="#21A038"/>
<path d="M34.7614 18H17.2386C15.4528 18 14 19.5446 14 21.4433V31.5567C14 33.4554 15.4528 35 17.2386 35H34.7614C36.5472 35 38 33.4554 38 31.5567V21.4433C38 19.5446 36.5472 18 34.7614 18ZM17.2386 20.0959H34.7614C35.4602 20.0959 36.0287 20.7003 36.0287 21.4433V22.2583H15.9713V21.4433C15.9713 20.7003 16.5398 20.0959 17.2386 20.0959ZM34.7614 32.9041H17.2386C16.5398 32.9041 15.9713 32.2997 15.9713 31.5567V24.3542H36.0287V31.5567C36.0287 32.2997 35.4602 32.9041 34.7614 32.9041Z" fill="white"/>
<path d="M19.9919 27.5164H18.4899C17.9456 27.5164 17.5043 27.9577 17.5043 28.502C17.5043 29.0464 17.9456 29.4877 18.4899 29.4877H19.9919C20.5362 29.4877 20.9775 29.0464 20.9775 28.502C20.9775 27.9577 20.5362 27.5164 19.9919 27.5164Z" fill="white"/>
</svg>
