<svg width="54" height="54" viewBox="0 0 54 54" fill="none" xmlns="http://www.w3.org/2000/svg">
<circle cx="27" cy="27" r="27" fill="#21A038"/>
<path d="M26.9624 19.1243C28.2149 19.1243 29.2319 18.0885 29.2319 16.8831C29.2319 15.6213 28.2149 14.6042 26.9624 14.6042C25.71 14.6042 24.7212 15.6213 24.7212 16.8831C24.7212 18.0885 25.71 19.1243 26.9624 19.1243ZM30.1736 37.0634C30.7103 37.0634 31.1906 36.6679 31.1906 36.0088C31.1906 35.7639 31.1247 35.5379 30.9928 35.2742L28.9776 31.1873C28.7987 30.8201 28.5915 30.4905 28.4032 30.2268L27.1696 28.4753L27.2449 28.2399C27.5839 27.1569 27.7158 26.4977 27.7911 25.4619L27.9983 22.5521C28.1019 21.1207 27.2732 19.953 25.7759 19.953C24.6836 19.953 23.8925 20.5463 22.8755 21.5351L21.3312 23.07C20.8038 23.5879 20.6343 24.0117 20.5872 24.6709L20.3895 27.0627C20.3424 27.7125 20.7096 28.1363 21.2935 28.1739C21.8491 28.2116 22.2634 27.882 22.3293 27.1852L22.5459 24.5673L23.4594 23.7574C23.6289 23.6068 23.8737 23.6915 23.8549 23.9458L23.6854 26.3C23.6006 27.4394 24.0997 28.2681 24.6647 28.9744L26.6799 31.5075C26.8777 31.7523 26.9059 31.8465 27.0001 32.0254L29.1471 36.3854C29.4014 36.8939 29.7781 37.0634 30.1736 37.0634ZM30.6162 25.9421H32.8951C33.5542 25.9421 33.9686 25.556 33.9686 24.9722C33.9686 24.3884 33.5448 24.0023 32.8856 24.0023H30.5032L28.8458 22.2036L28.6669 24.7933L29.3731 25.4995C29.7122 25.8386 30.0323 25.9421 30.6162 25.9421ZM21.0392 37.0634C21.3688 37.0634 21.6607 36.9128 21.8679 36.6679L24.9001 33.0613C25.2109 32.6846 25.2486 32.5904 25.3804 32.2232C25.4557 31.9783 25.5217 31.7429 25.5782 31.5169L23.8455 29.351L23.3369 31.7147L20.4648 35.1236C20.2011 35.4249 20.0222 35.6886 20.0222 36.0653C20.0222 36.6491 20.4648 37.0634 21.0392 37.0634Z" fill="#FAFAFA"/>
</svg>
