<svg width="54" height="54" viewBox="0 0 54 54" fill="none" xmlns="http://www.w3.org/2000/svg">
<circle cx="27" cy="27" r="27" fill="#21A038"/>
<g clip-path="url(#clip0_931_8)">
<path d="M27 15L15 19.4445V34.5498L27 38.9943L39 34.5498V19.4445L27 15ZM27 23.1943L23.9689 22.0717L32.332 18.9743L35.3632 20.0969L27 23.1943ZM29.6327 17.9745L21.2695 21.072L18.6368 20.0969L27 16.9995L29.6327 17.9745ZM16.875 21.4438L20.4375 22.7633V27.3926L22.3123 28.0869C22.3123 28.0862 22.3125 28.0854 22.3125 28.0847V23.4578L26.0625 24.8467V36.6475L16.875 33.2448V21.4438ZM27.9375 36.6475V24.8467L37.125 21.4438V33.2448L27.9375 36.6475Z" fill="white"/>
</g>
<defs>
<clipPath id="clip0_931_8">
<rect width="24" height="24" fill="white" transform="translate(15 15)"/>
</clipPath>
</defs>
</svg>
