<svg width="54" height="54" viewBox="0 0 54 54" fill="none" xmlns="http://www.w3.org/2000/svg">
<circle cx="27" cy="27" r="27" fill="#DDDFE0"/>
<g clip-path="url(#clip0_931_10)">
<path d="M27 40C23.5276 40 20.263 38.6477 17.8076 36.1924C15.3523 33.737 14 30.4724 14 27C14 23.5276 15.3523 20.263 17.8076 17.8076C20.263 15.3523 23.5276 14 27 14C30.4724 14 33.737 15.3523 36.1924 17.8076C38.6477 20.263 40 23.5276 40 27C40 30.4724 38.6477 33.737 36.1924 36.1924C33.737 38.6477 30.4724 40 27 40ZM27 16.0312C20.9518 16.0312 16.0312 20.9518 16.0312 27C16.0312 33.0482 20.9518 37.9688 27 37.9688C33.0482 37.9688 37.9688 33.0482 37.9688 27C37.9688 20.9518 33.0482 16.0312 27 16.0312ZM31.7601 29.2439C31.2869 28.9427 30.6591 29.0822 30.358 29.5555C30.3455 29.5752 29.0815 31.5226 26.9492 31.5226C24.8169 31.5226 23.553 29.5752 23.5404 29.5555C23.2393 29.0823 22.6116 28.9428 22.1384 29.2439C21.6651 29.5451 21.5256 30.1728 21.8268 30.646C21.9023 30.7647 23.7144 33.5539 26.9492 33.5539C30.184 33.5539 31.9961 30.7648 32.0717 30.646C32.3728 30.1728 32.2333 29.5451 31.7601 29.2439ZM22.5312 22.3789C23.2324 22.3789 23.8008 22.9473 23.8008 23.6484C23.8008 24.3496 23.2324 24.918 22.5312 24.918C21.8301 24.918 21.2617 24.3496 21.2617 23.6484C21.2617 22.9473 21.8301 22.3789 22.5312 22.3789ZM30.1484 23.6484C30.1484 24.3496 30.7168 24.918 31.418 24.918C32.1191 24.918 32.6875 24.3496 32.6875 23.6484C32.6875 22.9473 32.1191 22.3789 31.418 22.3789C30.7168 22.3789 30.1484 22.9473 30.1484 23.6484Z" fill="white"/>
</g>
<defs>
<clipPath id="clip0_931_10">
<rect width="26" height="26" fill="white" transform="translate(14 14)"/>
</clipPath>
</defs>
</svg>
