<svg width="29" height="33" fill="none" xmlns="http://www.w3.org/2000/svg"><path d="M28.812 31.915L26.304 8.031a.982.982 0 00-.977-.88h-4.714V6.076A6.083 6.083 0 0014.537 0 6.083 6.083 0 008.46 6.076v1.075H3.746a.982.982 0 00-.977.88L.261 31.915A.984.984 0 001.238 33h26.597a.982.982 0 00.977-1.085zM10.425 6.076a4.117 4.117 0 014.112-4.112 4.117 4.117 0 014.112 4.112v1.075h-8.224V6.076zm-8.096 24.96L4.63 9.116h3.83v2.164a.982.982 0 001.964 0V9.115h8.224v2.165a.982.982 0 001.964 0V9.115h3.83l2.302 21.92H2.329z" fill="#8168F0"/></svg>