<svg width="54" height="54" fill="none" xmlns="http://www.w3.org/2000/svg"><circle cx="27" cy="27" r="27" fill="#21A038"/><path d="M26.962 19.124c1.253 0 2.27-1.035 2.27-2.24a2.273 2.273 0 00-2.27-2.28c-1.252 0-2.24 1.017-2.24 2.28 0 1.204.988 2.24 2.24 2.24zm3.212 17.94c.536 0 1.017-.396 1.017-1.055 0-.245-.066-.471-.198-.735l-2.015-4.087a6.813 6.813 0 00-.575-.96l-1.233-1.752.075-.235c.339-1.083.47-1.742.546-2.778l.207-2.91c.104-1.431-.725-2.599-2.222-2.599-1.092 0-1.884.593-2.9 1.582L21.33 23.07c-.527.518-.697.942-.744 1.6l-.197 2.393c-.048.65.32 1.073.904 1.11.555.039.97-.291 1.035-.988l.217-2.618.913-.81c.17-.15.415-.066.396.189l-.17 2.354c-.084 1.14.415 1.968.98 2.674l2.015 2.534c.198.244.226.338.32.517l2.147 4.36c.254.509.631.678 1.027.678zm.442-11.122h2.28c.658 0 1.073-.386 1.073-.97s-.424-.97-1.083-.97h-2.383l-1.657-1.798-.18 2.59.707.706c.34.339.66.442 1.243.442zM21.04 37.063c.33 0 .622-.15.829-.395L24.9 33.06c.31-.376.349-.47.48-.838.076-.245.142-.48.198-.706l-1.732-2.166-.51 2.364-2.871 3.409c-.264.3-.443.565-.443.941 0 .584.443.998 1.017.998z" fill="#FAFAFA"/></svg>