<svg width="54" height="54" fill="none" xmlns="http://www.w3.org/2000/svg"><circle cx="27" cy="27" r="27" fill="#21A038"/><g clip-path="url(#clip0_931_8)"><path d="M27 15l-12 4.445V34.55l12 4.444 12-4.444V19.445L27 15zm0 8.194l-3.031-1.122 8.363-3.098 3.031 1.123L27 23.194zm2.633-5.22l-8.363 3.098-2.633-.975L27 16.999l2.633.976zm-12.758 3.47l3.563 1.32v4.629l1.874.694v-4.629l3.75 1.389v11.8l-9.187-3.402V21.444zm11.063 15.204V24.846l9.187-3.403v11.8l-9.188 3.404z" fill="#fff"/></g><defs><clipPath id="clip0_931_8"><path fill="#fff" transform="translate(15 15)" d="M0 0h24v24H0z"/></clipPath></defs></svg>