<svg width="17" height="18" fill="none" xmlns="http://www.w3.org/2000/svg"><path d="M8.287 8.842c2.279 0 4.124-2.015 4.124-4.482 0-2.43-1.845-4.36-4.124-4.36-2.27 0-4.134 1.959-4.125 4.379.01 2.458 1.846 4.463 4.125 4.463zm0-1.648c-1.3 0-2.401-1.233-2.401-2.815-.01-1.545 1.092-2.731 2.4-2.731 1.32 0 2.402 1.168 2.402 2.712 0 1.582-1.092 2.834-2.401 2.834zM2.41 17.6h11.742c1.63 0 2.411-.518 2.411-1.629 0-2.59-3.23-6.036-8.277-6.036C3.239 9.935 0 13.38 0 15.97c0 1.111.782 1.63 2.41 1.63zm-.292-1.648c-.226 0-.311-.075-.311-.245 0-1.44 2.326-4.124 6.479-4.124 4.143 0 6.47 2.684 6.47 4.124 0 .17-.085.245-.312.245H2.12z" fill="#8168F0"/></svg>