<svg width="54" height="54" fill="none" xmlns="http://www.w3.org/2000/svg"><circle cx="27" cy="27" r="27" fill="#DDDFE0"/><g clip-path="url(#clip0_931_10)"><path d="M27 40a12.915 12.915 0 01-9.192-3.808A12.915 12.915 0 0114 27c0-3.472 1.352-6.737 3.808-9.192A12.915 12.915 0 0127 14c3.472 0 6.737 1.352 9.192 3.808A12.915 12.915 0 0140 27c0 3.472-1.352 6.737-3.808 9.192A12.915 12.915 0 0127 40zm0-23.969c-6.048 0-10.969 4.92-10.969 10.969 0 6.048 4.92 10.969 10.969 10.969 6.048 0 10.969-4.92 10.969-10.969 0-6.048-4.92-10.969-10.969-10.969zm4.76 13.213a1.015 1.015 0 00-1.402.311c-.012.02-1.277 1.968-3.409 1.968-2.132 0-3.396-1.948-3.409-1.968a1.016 1.016 0 10-1.713 1.091c.075.119 1.887 2.908 5.122 2.908s5.047-2.79 5.123-2.908c.3-.473.161-1.1-.312-1.402zm-9.229-6.865a1.27 1.27 0 110 2.539 1.27 1.27 0 010-2.54zm7.617 1.27a1.27 1.27 0 102.54 0 1.27 1.27 0 00-2.54 0z" fill="#fff"/></g><defs><clipPath id="clip0_931_10"><path fill="#fff" transform="translate(14 14)" d="M0 0h26v26H0z"/></clipPath></defs></svg>